{
  "accessors": [
    {
      "bufferView": 2,
      "componentType": 5126,
      "count": 112,
      "max": [
        0.15818382799625397,
        -0.3276005983352661,
        -4.646762371063232
      ],
      "min": [
        -0.0910649523139,
        -0.6207632422447205,
        -4.821877956390381
      ],
      "type": "VEC3"
    },
    {
      "bufferView": 2,
      "byteOffset": 1344,
      "componentType": 5126,
      "count": 112,
      "max": [
        0.8125194311141968,
        0.9698718786239624,
        0.9746176600456238
      ],
      "min": [
        -1.0,
        -0.9698703289031982,
        -0.9746175408363342
      ],
      "type": "VEC3"
    },
    {
      "bufferView": 1,
      "componentType": 5126,
      "count": 112,
      "max": [
        0.909728467464447,
        1.0
      ],
      "min": [
        0.0,
        0.0
      ],
      "type": "VEC2"
    },
    {
      "bufferView": 1,
      "byteOffset": 896,
      "componentType": 5126,
      "count": 112,
      "max": [
        0.0,
        0.0
      ],
      "min": [
        0.0,
        0.0
      ],
      "type": "VEC2"
    },
    {
      "bufferView": 1,
      "byteOffset": 1792,
      "componentType": 5126,
      "count": 112,
      "max": [
        0.0,
        0.0
      ],
      "min": [
        0.0,
        0.0
      ],
      "type": "VEC2"
    },
    {
      "bufferView": 1,
      "byteOffset": 2688,
      "componentType": 5126,
      "count": 112,
      "max": [
        0.0,
        0.0
      ],
      "min": [
        0.0,
        0.0
      ],
      "type": "VEC2"
    },
    {
      "bufferView": 1,
      "byteOffset": 3584,
      "componentType": 5126,
      "count": 112,
      "max": [
        0.0,
        0.0
      ],
      "min": [
        0.0,
        0.0
      ],
      "type": "VEC2"
    },
    {
      "bufferView": 1,
      "byteOffset": 4480,
      "componentType": 5126,
      "count": 112,
      "max": [
        0.0,
        0.0
      ],
      "min": [
        0.0,
        0.0
      ],
      "type": "VEC2"
    },
    {
      "bufferView": 1,
      "byteOffset": 5376,
      "componentType": 5126,
      "count": 112,
      "max": [
        0.0,
        0.0
      ],
      "min": [
        0.0,
        0.0
      ],
      "type": "VEC2"
    },
    {
      "bufferView": 1,
      "byteOffset": 6272,
      "componentType": 5126,
      "count": 112,
      "max": [
        0.0,
        0.0
      ],
      "min": [
        0.0,
        0.0
      ],
      "type": "VEC2"
    },
    {
      "bufferView": 0,
      "componentType": 5125,
      "count": 276,
      "type": "SCALAR"
    },
    {
      "bufferView": 2,
      "byteOffset": 2688,
      "componentType": 5126,
      "count": 82,
      "max": [
        0.8689086437225342,
        0.3020544648170471,
        -4.371460437774658
      ],
      "min": [
        -0.44856807589530945,
        -1.1800529956817627,
        -4.808360576629639
      ],
      "type": "VEC3"
    },
    {
      "bufferView": 2,
      "byteOffset": 3672,
      "componentType": 5126,
      "count": 82,
      "max": [
        0.8660247921943665,
        0.9746177792549133,
        0.9919237494468689
      ],
      "min": [
        -0.8660258650779724,
        -0.9746177196502686,
        -0.9919243454933167
      ],
      "type": "VEC3"
    },
    {
      "bufferView": 1,
      "byteOffset": 7168,
      "componentType": 5126,
      "count": 82,
      "max": [
        0.32694318890571594,
        0.9999999403953552
      ],
      "min": [
        7.083206465807734e-09,
        0.0
      ],
      "type": "VEC2"
    },
    {
      "bufferView": 1,
      "byteOffset": 7824,
      "componentType": 5126,
      "count": 82,
      "max": [
        0.0,
        0.0
      ],
      "min": [
        0.0,
        0.0
      ],
      "type": "VEC2"
    },
    {
      "bufferView": 1,
      "byteOffset": 8480,
      "componentType": 5126,
      "count": 82,
      "max": [
        0.0,
        0.0
      ],
      "min": [
        0.0,
        0.0
      ],
      "type": "VEC2"
    },
    {
      "bufferView": 1,
      "byteOffset": 9136,
      "componentType": 5126,
      "count": 82,
      "max": [
        0.0,
        0.0
      ],
      "min": [
        0.0,
        0.0
      ],
      "type": "VEC2"
    },
    {
      "bufferView": 1,
      "byteOffset": 9792,
      "componentType": 5126,
      "count": 82,
      "max": [
        0.0,
        0.0
      ],
      "min": [
        0.0,
        0.0
      ],
      "type": "VEC2"
    },
    {
      "bufferView": 1,
      "byteOffset": 10448,
      "componentType": 5126,
      "count": 82,
      "max": [
        0.0,
        0.0
      ],
      "min": [
        0.0,
        0.0
      ],
      "type": "VEC2"
    },
    {
      "bufferView": 1,
      "byteOffset": 11104,
      "componentType": 5126,
      "count": 82,
      "max": [
        0.0,
        0.0
      ],
      "min": [
        0.0,
        0.0
      ],
      "type": "VEC2"
    },
    {
      "bufferView": 1,
      "byteOffset": 11760,
      "componentType": 5126,
      "count": 82,
      "max": [
        0.0,
        0.0
      ],
      "min": [
        0.0,
        0.0
      ],
      "type": "VEC2"
    },
    {
      "bufferView": 0,
      "byteOffset": 1104,
      "componentType": 5125,
      "count": 162,
      "type": "SCALAR"
    },
    {
      "bufferView": 2,
      "byteOffset": 4656,
      "componentType": 5126,
      "count": 567,
      "max": [
        1.4424625635147095,
        0.7034032940864563,
        -3.706721067428589
      ],
      "min": [
        -0.7674490213394165,
        -1.7936255931854248,
        -5.3830461502075195
      ],
      "type": "VEC3"
    },
    {
      "bufferView": 2,
      "byteOffset": 11460,
      "componentType": 5126,
      "count": 567,
      "max": [
        0.9313625693321228,
        0.9854412078857422,
        0.8332505822181702
      ],
      "min": [
        -0.9313640594482422,
        -0.9854409098625183,
        -0.8332517743110657
      ],
      "type": "VEC3"
    },
    {
      "bufferView": 1,
      "byteOffset": 12416,
      "componentType": 5126,
      "count": 567,
      "max": [
        0.19049999117851257,
        1.0
      ],
      "min": [
        7.965040182966732e-09,
        0.0
      ],
      "type": "VEC2"
    },
    {
      "bufferView": 1,
      "byteOffset": 16952,
      "componentType": 5126,
      "count": 567,
      "max": [
        0.0,
        0.0
      ],
      "min": [
        0.0,
        0.0
      ],
      "type": "VEC2"
    },
    {
      "bufferView": 1,
      "byteOffset": 21488,
      "componentType": 5126,
      "count": 567,
      "max": [
        0.0,
        0.0
      ],
      "min": [
        0.0,
        0.0
      ],
      "type": "VEC2"
    },
    {
      "bufferView": 1,
      "byteOffset": 26024,
      "componentType": 5126,
      "count": 567,
      "max": [
        0.0,
        0.0
      ],
      "min": [
        0.0,
        0.0
      ],
      "type": "VEC2"
    },
    {
      "bufferView": 1,
      "byteOffset": 30560,
      "componentType": 5126,
      "count": 567,
      "max": [
        0.0,
        0.0
      ],
      "min": [
        0.0,
        0.0
      ],
      "type": "VEC2"
    },
    {
      "bufferView": 1,
      "byteOffset": 35096,
      "componentType": 5126,
      "count": 567,
      "max": [
        0.0,
        0.0
      ],
      "min": [
        0.0,
        0.0
      ],
      "type": "VEC2"
    },
    {
      "bufferView": 1,
      "byteOffset": 39632,
      "componentType": 5126,
      "count": 567,
      "max": [
        0.0,
        0.0
      ],
      "min": [
        0.0,
        0.0
      ],
      "type": "VEC2"
    },
    {
      "bufferView": 1,
      "byteOffset": 44168,
      "componentType": 5126,
      "count": 567,
      "max": [
        0.0,
        0.0
      ],
      "min": [
        0.0,
        0.0
      ],
      "type": "VEC2"
    },
    {
      "bufferView": 0,
      "byteOffset": 1752,
      "componentType": 5125,
      "count": 1071,
      "type": "SCALAR"
    },
    {
      "bufferView": 2,
      "byteOffset": 18264,
      "componentType": 5126,
      "count": 151,
      "max": [
        0.16231538355350494,
        -0.08442294597625732,
        -3.602494239807129
      ],
      "min": [
        -0.09344365447759628,
        -0.38081228733062744,
        -3.7628955841064453
      ],
      "type": "VEC3"
    },
    {
      "bufferView": 2,
      "byteOffset": 20076,
      "componentType": 5126,
      "count": 151,
      "max": [
        0.8125218152999878,
        0.9698713421821594,
        0.974618136882782
      ],
      "min": [
        -1.0,
        -0.9698708653450012,
        -0.9746201038360596
      ],
      "type": "VEC3"
    },
    {
      "bufferView": 1,
      "byteOffset": 48704,
      "componentType": 5126,
      "count": 151,
      "max": [
        0.9097285866737366,
        1.0
      ],
      "min": [
        0.0,
        0.0
      ],
      "type": "VEC2"
    },
    {
      "bufferView": 1,
      "byteOffset": 49912,
      "componentType": 5126,
      "count": 151,
      "max": [
        0.0,
        0.0
      ],
      "min": [
        0.0,
        0.0
      ],
      "type": "VEC2"
    },
    {
      "bufferView": 1,
      "byteOffset": 51120,
      "componentType": 5126,
      "count": 151,
      "max": [
        0.0,
        0.0
      ],
      "min": [
        0.0,
        0.0
      ],
      "type": "VEC2"
    },
    {
      "bufferView": 1,
      "byteOffset": 52328,
      "componentType": 5126,
      "count": 151,
      "max": [
        0.0,
        0.0
      ],
      "min": [
        0.0,
        0.0
      ],
      "type": "VEC2"
    },
    {
      "bufferView": 1,
      "byteOffset": 53536,
      "componentType": 5126,
      "count": 151,
      "max": [
        0.0,
        0.0
      ],
      "min": [
        0.0,
        0.0
      ],
      "type": "VEC2"
    },
    {
      "bufferView": 1,
      "byteOffset": 54744,
      "componentType": 5126,
      "count": 151,
      "max": [
        0.0,
        0.0
      ],
      "min": [
        0.0,
        0.0
      ],
      "type": "VEC2"
    },
    {
      "bufferView": 1,
      "byteOffset": 55952,
      "componentType": 5126,
      "count": 151,
      "max": [
        0.0,
        0.0
      ],
      "min": [
        0.0,
        0.0
      ],
      "type": "VEC2"
    },
    {
      "bufferView": 1,
      "byteOffset": 57160,
      "componentType": 5126,
      "count": 151,
      "max": [
        0.0,
        0.0
      ],
      "min": [
        0.0,
        0.0
      ],
      "type": "VEC2"
    },
    {
      "bufferView": 0,
      "byteOffset": 6036,
      "componentType": 5125,
      "count": 399,
      "type": "SCALAR"
    },
    {
      "bufferView": 2,
      "byteOffset": 21888,
      "componentType": 5126,
      "count": 408,
      "max": [
        0.050000544637441635,
        0.5926035046577454,
        -0.29113176465034485
      ],
      "min": [
        -0.049999963492155075,
        -0.509844958782196,
        -4.688624858856201
      ],
      "type": "VEC3"
    },
    {
      "bufferView": 2,
      "byteOffset": 26784,
      "componentType": 5126,
      "count": 408,
      "max": [
        0.9951848983764648,
        0.9699252247810364,
        0.9746178388595581
      ],
      "min": [
        -0.9951848387718201,
        -0.9699255228042603,
        -0.4980402886867523
      ],
      "type": "VEC3"
    },
    {
      "bufferView": 1,
      "byteOffset": 58368,
      "componentType": 5126,
      "count": 408,
      "max": [
        0.08332016319036484,
        1.0
      ],
      "min": [
        0.0,
        0.0
      ],
      "type": "VEC2"
    },
    {
      "bufferView": 1,
      "byteOffset": 61632,
      "componentType": 5126,
      "count": 408,
      "max": [
        0.0,
        0.0
      ],
      "min": [
        0.0,
        0.0
      ],
      "type": "VEC2"
    },
    {
      "bufferView": 1,
      "byteOffset": 64896,
      "componentType": 5126,
      "count": 408,
      "max": [
        0.0,
        0.0
      ],
      "min": [
        0.0,
        0.0
      ],
      "type": "VEC2"
    },
    {
      "bufferView": 1,
      "byteOffset": 68160,
      "componentType": 5126,
      "count": 408,
      "max": [
        0.0,
        0.0
      ],
      "min": [
        0.0,
        0.0
      ],
      "type": "VEC2"
    },
    {
      "bufferView": 1,
      "byteOffset": 71424,
      "componentType": 5126,
      "count": 408,
      "max": [
        0.0,
        0.0
      ],
      "min": [
        0.0,
        0.0
      ],
      "type": "VEC2"
    },
    {
      "bufferView": 1,
      "byteOffset": 74688,
      "componentType": 5126,
      "count": 408,
      "max": [
        0.0,
        0.0
      ],
      "min": [
        0.0,
        0.0
      ],
      "type": "VEC2"
    },
    {
      "bufferView": 1,
      "byteOffset": 77952,
      "componentType": 5126,
      "count": 408,
      "max": [
        0.0,
        0.0
      ],
      "min": [
        0.0,
        0.0
      ],
      "type": "VEC2"
    },
    {
      "bufferView": 1,
      "byteOffset": 81216,
      "componentType": 5126,
      "count": 408,
      "max": [
        0.0,
        0.0
      ],
      "min": [
        0.0,
        0.0
      ],
      "type": "VEC2"
    },
    {
      "bufferView": 0,
      "byteOffset": 7632,
      "componentType": 5125,
      "count": 744,
      "type": "SCALAR"
    },
    {
      "bufferView": 2,
      "byteOffset": 31680,
      "componentType": 5126,
      "count": 80,
      "max": [
        0.05000005289912224,
        0.7314164638519287,
        -0.17463251948356628
      ],
      "min": [
        -0.04999998211860657,
        0.4045809209346771,
        -0.35718899965286255
      ],
      "type": "VEC3"
    },
    {
      "bufferView": 2,
      "byteOffset": 32640,
      "componentType": 5126,
      "count": 80,
      "max": [
        1.0,
        0.9746178984642029,
        0.39174726605415344
      ],
      "min": [
        -1.0,
        -0.9746179580688477,
        -0.996097981929779
      ],
      "type": "VEC3"
    },
    {
      "bufferView": 1,
      "byteOffset": 84480,
      "componentType": 5126,
      "count": 80,
      "max": [
        1.0,
        0.9510565996170044
      ],
      "min": [
        5.445315309771104e-09,
        0.031334031373262405
      ],
      "type": "VEC2"
    },
    {
      "bufferView": 1,
      "byteOffset": 85120,
      "componentType": 5126,
      "count": 80,
      "max": [
        0.0,
        0.0
      ],
      "min": [
        0.0,
        0.0
      ],
      "type": "VEC2"
    },
    {
      "bufferView": 1,
      "byteOffset": 85760,
      "componentType": 5126,
      "count": 80,
      "max": [
        0.0,
        0.0
      ],
      "min": [
        0.0,
        0.0
      ],
      "type": "VEC2"
    },
    {
      "bufferView": 1,
      "byteOffset": 86400,
      "componentType": 5126,
      "count": 80,
      "max": [
        0.0,
        0.0
      ],
      "min": [
        0.0,
        0.0
      ],
      "type": "VEC2"
    },
    {
      "bufferView": 1,
      "byteOffset": 87040,
      "componentType": 5126,
      "count": 80,
      "max": [
        0.0,
        0.0
      ],
      "min": [
        0.0,
        0.0
      ],
      "type": "VEC2"
    },
    {
      "bufferView": 1,
      "byteOffset": 87680,
      "componentType": 5126,
      "count": 80,
      "max": [
        0.0,
        0.0
      ],
      "min": [
        0.0,
        0.0
      ],
      "type": "VEC2"
    },
    {
      "bufferView": 1,
      "byteOffset": 88320,
      "componentType": 5126,
      "count": 80,
      "max": [
        0.0,
        0.0
      ],
      "min": [
        0.0,
        0.0
      ],
      "type": "VEC2"
    },
    {
      "bufferView": 1,
      "byteOffset": 88960,
      "componentType": 5126,
      "count": 80,
      "max": [
        0.0,
        0.0
      ],
      "min": [
        0.0,
        0.0
      ],
      "type": "VEC2"
    },
    {
      "bufferView": 0,
      "byteOffset": 10608,
      "componentType": 5125,
      "count": 180,
      "type": "SCALAR"
    },
    {
      "bufferView": 2,
      "byteOffset": 33600,
      "componentType": 5126,
      "count": 140,
      "max": [
        1.0,
        0.8442747592926025,
        1.0
      ],
      "min": [
        -1.0,
        -1.0,
        -1.0
      ],
      "type": "VEC3"
    },
    {
      "bufferView": 2,
      "byteOffset": 35280,
      "componentType": 5126,
      "count": 140,
      "max": [
        1.0,
        1.0,
        1.0
      ],
      "min": [
        -1.0,
        -1.0,
        -1.0
      ],
      "type": "VEC3"
    },
    {
      "bufferView": 1,
      "byteOffset": 89600,
      "componentType": 5126,
      "count": 140,
      "max": [
        0.9457929730415344,
        0.9897773861885071
      ],
      "min": [
        0.010222505778074265,
        0.010222505778074265
      ],
      "type": "VEC2"
    },
    {
      "bufferView": 1,
      "byteOffset": 90720,
      "componentType": 5126,
      "count": 140,
      "max": [
        0.0,
        0.0
      ],
      "min": [
        0.0,
        0.0
      ],
      "type": "VEC2"
    },
    {
      "bufferView": 1,
      "byteOffset": 91840,
      "componentType": 5126,
      "count": 140,
      "max": [
        0.0,
        0.0
      ],
      "min": [
        0.0,
        0.0
      ],
      "type": "VEC2"
    },
    {
      "bufferView": 1,
      "byteOffset": 92960,
      "componentType": 5126,
      "count": 140,
      "max": [
        0.0,
        0.0
      ],
      "min": [
        0.0,
        0.0
      ],
      "type": "VEC2"
    },
    {
      "bufferView": 1,
      "byteOffset": 94080,
      "componentType": 5126,
      "count": 140,
      "max": [
        0.0,
        0.0
      ],
      "min": [
        0.0,
        0.0
      ],
      "type": "VEC2"
    },
    {
      "bufferView": 1,
      "byteOffset": 95200,
      "componentType": 5126,
      "count": 140,
      "max": [
        0.0,
        0.0
      ],
      "min": [
        0.0,
        0.0
      ],
      "type": "VEC2"
    },
    {
      "bufferView": 1,
      "byteOffset": 96320,
      "componentType": 5126,
      "count": 140,
      "max": [
        0.0,
        0.0
      ],
      "min": [
        0.0,
        0.0
      ],
      "type": "VEC2"
    },
    {
      "bufferView": 1,
      "byteOffset": 97440,
      "componentType": 5126,
      "count": 140,
      "max": [
        0.0,
        0.0
      ],
      "min": [
        0.0,
        0.0
      ],
      "type": "VEC2"
    },
    {
      "bufferView": 0,
      "byteOffset": 11328,
      "componentType": 5125,
      "count": 222,
      "type": "SCALAR"
    }
  ],
  "asset": {
    "extras": {
      "author": "Drake (https://sketchfab.com/dlp14c)",
      "license": "CC-BY-4.0 (http://creativecommons.org/licenses/by/4.0/)",
      "source": "https://sketchfab.com/3d-models/softbox-light-ff62b4c804664a94af6211c4fae34875",
      "title": "Softbox Light"
    },
    "generator": "Sketchfab-12.68.0",
    "version": "2.0"
  },
  "bufferViews": [
    {
      "buffer": 0,
      "byteLength": 12216,
      "name": "floatBufferViews",
      "target": 34963
    },
    {
      "buffer": 0,
      "byteLength": 98560,
      "byteOffset": 12216,
      "byteStride": 8,
      "name": "floatBufferViews",
      "target": 34962
    },
    {
      "buffer": 0,
      "byteLength": 36960,
      "byteOffset": 110776,
      "byteStride": 12,
      "name": "floatBufferViews",
      "target": 34962
    }
  ],
  "buffers": [
    {
      "byteLength": 147736,
      "uri": "scene.bin"
    }
  ],
  "images": [
    {
      "uri": "textures/supportTriangle_baseColor.jpeg"
    },
    {
      "uri": "textures/supportArm_baseColor.png"
    },
    {
      "uri": "textures/supportWheel_baseColor.png"
    },
    {
      "uri": "textures/Material.002_baseColor.png"
    }
  ],
  "materials": [
    {
      "doubleSided": true,
      "name": "supportTriangle",
      "pbrMetallicRoughness": {
        "baseColorTexture": {
          "index": 0
        },
        "metallicFactor": 0.0,
        "roughnessFactor": 0.8239417257461427
      }
    },
    {
      "doubleSided": true,
      "name": "supportArm",
      "pbrMetallicRoughness": {
        "baseColorTexture": {
          "index": 1
        },
        "metallicFactor": 0.0,
        "roughnessFactor": 0.8239417257461427
      }
    },
    {
      "doubleSided": true,
      "name": "supportLeg",
      "pbrMetallicRoughness": {
        "baseColorTexture": {
          "index": 0
        },
        "metallicFactor": 0.0,
        "roughnessFactor": 0.8239417257461427
      }
    },
    {
      "doubleSided": true,
      "name": "supportTriangle2",
      "pbrMetallicRoughness": {
        "baseColorTexture": {
          "index": 0
        },
        "metallicFactor": 0.0,
        "roughnessFactor": 0.8239417257461427
      }
    },
    {
      "doubleSided": true,
      "name": "shaft",
      "pbrMetallicRoughness": {
        "baseColorTexture": {
          "index": 0
        },
        "metallicFactor": 0.0,
        "roughnessFactor": 0.8239417257461427
      }
    },
    {
      "doubleSided": true,
      "name": "supportWheel",
      "pbrMetallicRoughness": {
        "baseColorTexture": {
          "index": 2
        },
        "metallicFactor": 0.0,
        "roughnessFactor": 0.8239417257461427
      }
    },
    {
      "doubleSided": true,
      "name": "Material.002",
      "pbrMetallicRoughness": {
        "baseColorTexture": {
          "index": 3
        },
        "metallicFactor": 0.0,
        "roughnessFactor": 0.8239417257461427
      }
    }
  ],
  "meshes": [
    {
      "name": "Cube_supportTriangle_0",
      "primitives": [
        {
          "attributes": {
            "NORMAL": 1,
            "POSITION": 0,
            "TEXCOORD_0": 2,
            "TEXCOORD_1": 3,
            "TEXCOORD_2": 4,
            "TEXCOORD_3": 5,
            "TEXCOORD_4": 6,
            "TEXCOORD_5": 7,
            "TEXCOORD_6": 8,
            "TEXCOORD_7": 9
          },
          "indices": 10,
          "material": 0,
          "mode": 4
        }
      ]
    },
    {
      "name": "Cube_supportArm_0",
      "primitives": [
        {
          "attributes": {
            "NORMAL": 12,
            "POSITION": 11,
            "TEXCOORD_0": 13,
            "TEXCOORD_1": 14,
            "TEXCOORD_2": 15,
            "TEXCOORD_3": 16,
            "TEXCOORD_4": 17,
            "TEXCOORD_5": 18,
            "TEXCOORD_6": 19,
            "TEXCOORD_7": 20
          },
          "indices": 21,
          "material": 1,
          "mode": 4
        }
      ]
    },
    {
      "name": "Cube_supportLeg_0",
      "primitives": [
        {
          "attributes": {
            "NORMAL": 23,
            "POSITION": 22,
            "TEXCOORD_0": 24,
            "TEXCOORD_1": 25,
            "TEXCOORD_2": 26,
            "TEXCOORD_3": 27,
            "TEXCOORD_4": 28,
            "TEXCOORD_5": 29,
            "TEXCOORD_6": 30,
            "TEXCOORD_7": 31
          },
          "indices": 32,
          "material": 2,
          "mode": 4
        }
      ]
    },
    {
      "name": "Cube_supportTriangle2_0",
      "primitives": [
        {
          "attributes": {
            "NORMAL": 34,
            "POSITION": 33,
            "TEXCOORD_0": 35,
            "TEXCOORD_1": 36,
            "TEXCOORD_2": 37,
            "TEXCOORD_3": 38,
            "TEXCOORD_4": 39,
            "TEXCOORD_5": 40,
            "TEXCOORD_6": 41,
            "TEXCOORD_7": 42
          },
          "indices": 43,
          "material": 3,
          "mode": 4
        }
      ]
    },
    {
      "name": "Cube_shaft_0",
      "primitives": [
        {
          "attributes": {
            "NORMAL": 45,
            "POSITION": 44,
            "TEXCOORD_0": 46,
            "TEXCOORD_1": 47,
            "TEXCOORD_2": 48,
            "TEXCOORD_3": 49,
            "TEXCOORD_4": 50,
            "TEXCOORD_5": 51,
            "TEXCOORD_6": 52,
            "TEXCOORD_7": 53
          },
          "indices": 54,
          "material": 4,
          "mode": 4
        }
      ]
    },
    {
      "name": "Cube_supportWheel_0",
      "primitives": [
        {
          "attributes": {
            "NORMAL": 56,
            "POSITION": 55,
            "TEXCOORD_0": 57,
            "TEXCOORD_1": 58,
            "TEXCOORD_2": 59,
            "TEXCOORD_3": 60,
            "TEXCOORD_4": 61,
            "TEXCOORD_5": 62,
            "TEXCOORD_6": 63,
            "TEXCOORD_7": 64
          },
          "indices": 65,
          "material": 5,
          "mode": 4
        }
      ]
    },
    {
      "name": "Cube_Material.002_0",
      "primitives": [
        {
          "attributes": {
            "NORMAL": 67,
            "POSITION": 66,
            "TEXCOORD_0": 68,
            "TEXCOORD_1": 69,
            "TEXCOORD_2": 70,
            "TEXCOORD_3": 71,
            "TEXCOORD_4": 72,
            "TEXCOORD_5": 73,
            "TEXCOORD_6": 74,
            "TEXCOORD_7": 75
          },
          "indices": 76,
          "material": 6,
          "mode": 4
        }
      ]
    }
  ],
  "nodes": [
    {
      "children": [
        1
      ],
      "matrix": [
        1.0,
        0.0,
        0.0,
        0.0,
        0.0,
        2.220446049250313e-16,
        -1.0,
        0.0,
        0.0,
        1.0,
        2.220446049250313e-16,
        0.0,
        0.0,
        0.0,
        0.0,
        1.0
      ],
      "name": "Sketchfab_model"
    },
    {
      "children": [
        2
      ],
      "matrix": [
        1.0,
        0.0,
        0.0,
        0.0,
        0.0,
        0.0,
        1.0,
        0.0,
        0.0,
        -1.0,
        0.0,
        0.0,
        0.0,
        0.0,
        0.0,
        1.0
      ],
      "name": "7465b73a33ad4f49a9361da1f27921b0.fbx"
    },
    {
      "children": [
        3
      ],
      "name": "RootNode"
    },
    {
      "children": [
        4,
        5,
        6,
        7,
        8,
        9,
        10
      ],
      "matrix": [
        7.54978948766387e-08,
        -5.5511147922535377e-17,
        -0.9999999403953524,
        0.0,
        -0.974617735434532,
        0.2238753013781853,
        -7.358159187466975e-08,
        0.0,
        0.22387530137818473,
        0.9746177354345348,
        1.690211481061806e-08,
        0.0,
        0.597751259803772,
        5.117719650268555,
        0.0,
        1.0
      ],
      "name": "Cube"
    },
    {
      "mesh": 0,
      "name": "Cube_supportTriangle_0"
    },
    {
      "mesh": 1,
      "name": "Cube_supportArm_0"
    },
    {
      "mesh": 2,
      "name": "Cube_supportLeg_0"
    },
    {
      "mesh": 3,
      "name": "Cube_supportTriangle2_0"
    },
    {
      "mesh": 4,
      "name": "Cube_shaft_0"
    },
    {
      "mesh": 5,
      "name": "Cube_supportWheel_0"
    },
    {
      "mesh": 6,
      "name": "Cube_Material.002_0"
    }
  ],
  "samplers": [
    {
      "magFilter": 9729,
      "minFilter": 9987,
      "wrapS": 10497,
      "wrapT": 10497
    }
  ],
  "scene": 0,
  "scenes": [
    {
      "name": "Sketchfab_Scene",
      "nodes": [
        0
      ]
    }
  ],
  "textures": [
    {
      "sampler": 0,
      "source": 0
    },
    {
      "sampler": 0,
      "source": 1
    },
    {
      "sampler": 0,
      "source": 2
    },
    {
      "sampler": 0,
      "source": 3
    }
  ]
}
