{
  "accessors": [
    {
      "bufferView": 2,
      "componentType": 5126,
      "count": 2615,
      "max": [
        0.5569647550582886,
        1.6364595890045166,
        0.4724411964416504
      ],
      "min": [
        -0.731002151966095,
        0.00033112848177552223,
        -0.4884873926639557
      ],
      "type": "VEC3"
    },
    {
      "bufferView": 2,
      "byteOffset": 31380,
      "componentType": 5126,
      "count": 2615,
      "max": [
        1.0,
        1.0,
        1.0
      ],
      "min": [
        -1.0,
        -1.0,
        -1.0
      ],
      "type": "VEC3"
    },
    {
      "bufferView": 1,
      "componentType": 5126,
      "count": 2615,
      "max": [
        0.966087818145752,
        0.6181960105895996
      ],
      "min": [
        0.0,
        0.0
      ],
      "type": "VEC2"
    },
    {
      "bufferView": 0,
      "componentType": 5125,
      "count": 2835,
      "type": "SCALAR"
    },
    {
      "bufferView": 2,
      "byteOffset": 62760,
      "componentType": 5126,
      "count": 1539,
      "max": [
        0.2636486291885376,
        2.4295666217803955,
        0.6818398833274841
      ],
      "min": [
        -0.7324514985084534,
        5.224808046477847e-05,
        -0.6769705414772034
      ],
      "type": "VEC3"
    },
    {
      "bufferView": 2,
      "byteOffset": 81228,
      "componentType": 5126,
      "count": 1539,
      "max": [
        1.0,
        1.0,
        1.0
      ],
      "min": [
        -1.0,
        -1.0,
        -1.0
      ],
      "type": "VEC3"
    },
    {
      "bufferView": 1,
      "byteOffset": 20920,
      "componentType": 5126,
      "count": 1539,
      "max": [
        1.0,
        0.8333333134651184
      ],
      "min": [
        0.0,
        0.0
      ],
      "type": "VEC2"
    },
    {
      "bufferView": 0,
      "byteOffset": 11340,
      "componentType": 5125,
      "count": 1608,
      "type": "SCALAR"
    },
    {
      "bufferView": 2,
      "byteOffset": 99696,
      "componentType": 5126,
      "count": 797,
      "max": [
        0.31887370347976685,
        2.388585329055786,
        0.45149731636047363
      ],
      "min": [
        -0.6552405953407288,
        6.286400457611308e-05,
        -0.4414636492729187
      ],
      "type": "VEC3"
    },
    {
      "bufferView": 2,
      "byteOffset": 109260,
      "componentType": 5126,
      "count": 797,
      "max": [
        1.0,
        1.0,
        1.0
      ],
      "min": [
        -1.0,
        -1.0,
        -1.0
      ],
      "type": "VEC3"
    },
    {
      "bufferView": 1,
      "byteOffset": 33232,
      "componentType": 5126,
      "count": 797,
      "max": [
        0.966796875,
        0.49000000953674316
      ],
      "min": [
        0.0,
        0.0
      ],
      "type": "VEC2"
    },
    {
      "bufferView": 0,
      "byteOffset": 17772,
      "componentType": 5125,
      "count": 834,
      "type": "SCALAR"
    },
    {
      "bufferView": 2,
      "byteOffset": 118824,
      "componentType": 5126,
      "count": 1514,
      "max": [
        0.4332694411277771,
        2.7610833644866943,
        0.4232615530490875
      ],
      "min": [
        -1.6155790090560913,
        6.0451606259448454e-05,
        -0.43606775999069214
      ],
      "type": "VEC3"
    },
    {
      "bufferView": 2,
      "byteOffset": 136992,
      "componentType": 5126,
      "count": 1514,
      "max": [
        1.0,
        1.0,
        1.0
      ],
      "min": [
        -1.0,
        -1.0,
        -1.0
      ],
      "type": "VEC3"
    },
    {
      "bufferView": 1,
      "byteOffset": 39608,
      "componentType": 5126,
      "count": 1514,
      "max": [
        0.966796875,
        0.49000000953674316
      ],
      "min": [
        0.0,
        0.0
      ],
      "type": "VEC2"
    },
    {
      "bufferView": 0,
      "byteOffset": 21108,
      "componentType": 5125,
      "count": 1554,
      "type": "SCALAR"
    },
    {
      "bufferView": 2,
      "byteOffset": 155160,
      "componentType": 5126,
      "count": 852,
      "max": [
        0.15726366639137268,
        1.3554171323776245,
        0.23262885212898254
      ],
      "min": [
        -0.2678808569908142,
        -0.0011963681317865849,
        -0.23020489513874054
      ],
      "type": "VEC3"
    },
    {
      "bufferView": 2,
      "byteOffset": 165384,
      "componentType": 5126,
      "count": 852,
      "max": [
        1.0,
        1.0,
        1.0
      ],
      "min": [
        -1.0,
        -1.0,
        -1.0
      ],
      "type": "VEC3"
    },
    {
      "bufferView": 1,
      "byteOffset": 51720,
      "componentType": 5126,
      "count": 852,
      "max": [
        0.96484375,
        0.49000000953674316
      ],
      "min": [
        0.0,
        0.0
      ],
      "type": "VEC2"
    },
    {
      "bufferView": 0,
      "byteOffset": 27324,
      "componentType": 5125,
      "count": 888,
      "type": "SCALAR"
    },
    {
      "bufferView": 2,
      "byteOffset": 175608,
      "componentType": 5126,
      "count": 2058,
      "max": [
        0.5840449333190918,
        2.5898258686065674,
        0.395621657371521
      ],
      "min": [
        -1.244362473487854,
        5.066422090749256e-05,
        -0.2524645924568176
      ],
      "type": "VEC3"
    },
    {
      "bufferView": 2,
      "byteOffset": 200304,
      "componentType": 5126,
      "count": 2058,
      "max": [
        1.0,
        1.0,
        1.0
      ],
      "min": [
        -1.0,
        -1.0,
        -1.0
      ],
      "type": "VEC3"
    },
    {
      "bufferView": 1,
      "byteOffset": 58536,
      "componentType": 5126,
      "count": 2058,
      "max": [
        0.9648436903953552,
        0.6456249952316284
      ],
      "min": [
        0.0,
        0.0
      ],
      "type": "VEC2"
    },
    {
      "bufferView": 0,
      "byteOffset": 30876,
      "componentType": 5125,
      "count": 2064,
      "type": "SCALAR"
    },
    {
      "bufferView": 2,
      "byteOffset": 225000,
      "componentType": 5126,
      "count": 2492,
      "max": [
        0.23336921632289886,
        1.2982888221740723,
        0.1457659900188446
      ],
      "min": [
        -0.38275060057640076,
        -0.0026668107602745295,
        -0.24435195326805115
      ],
      "type": "VEC3"
    },
    {
      "bufferView": 2,
      "byteOffset": 254904,
      "componentType": 5126,
      "count": 2492,
      "max": [
        1.0,
        1.0,
        1.0
      ],
      "min": [
        -1.0,
        -1.0,
        -1.0
      ],
      "type": "VEC3"
    },
    {
      "bufferView": 1,
      "byteOffset": 75000,
      "componentType": 5126,
      "count": 2492,
      "max": [
        0.9700095653533936,
        1.0
      ],
      "min": [
        0.0,
        0.0
      ],
      "type": "VEC2"
    },
    {
      "bufferView": 0,
      "byteOffset": 39132,
      "componentType": 5125,
      "count": 2520,
      "type": "SCALAR"
    },
    {
      "bufferView": 2,
      "byteOffset": 284808,
      "componentType": 5126,
      "count": 2078,
      "max": [
        0.3245891332626343,
        1.3196525573730469,
        0.6514214873313904
      ],
      "min": [
        -0.3351440727710724,
        -0.006888102740049362,
        -0.2342144399881363
      ],
      "type": "VEC3"
    },
    {
      "bufferView": 2,
      "byteOffset": 309744,
      "componentType": 5126,
      "count": 2078,
      "max": [
        0.9999955296516418,
        1.0,
        1.0
      ],
      "min": [
        -0.9999956488609314,
        -1.0,
        -1.0
      ],
      "type": "VEC3"
    },
    {
      "bufferView": 1,
      "byteOffset": 94936,
      "componentType": 5126,
      "count": 2078,
      "max": [
        0.9681592583656311,
        0.49000000953674316
      ],
      "min": [
        0.0,
        0.0
      ],
      "type": "VEC2"
    },
    {
      "bufferView": 0,
      "byteOffset": 49212,
      "componentType": 5125,
      "count": 2100,
      "type": "SCALAR"
    },
    {
      "bufferView": 2,
      "byteOffset": 334680,
      "componentType": 5126,
      "count": 2491,
      "max": [
        0.20979230105876923,
        1.5019663572311401,
        0.3407639265060425
      ],
      "min": [
        -0.263236403465271,
        4.118520155316219e-05,
        -0.24082227051258087
      ],
      "type": "VEC3"
    },
    {
      "bufferView": 2,
      "byteOffset": 364572,
      "componentType": 5126,
      "count": 2491,
      "max": [
        1.0,
        1.0,
        1.0
      ],
      "min": [
        -1.0,
        -1.0,
        -1.0
      ],
      "type": "VEC3"
    },
    {
      "bufferView": 1,
      "byteOffset": 111560,
      "componentType": 5126,
      "count": 2491,
      "max": [
        0.9700095653533936,
        1.0
      ],
      "min": [
        0.0,
        0.0
      ],
      "type": "VEC2"
    },
    {
      "bufferView": 0,
      "byteOffset": 57612,
      "componentType": 5125,
      "count": 2520,
      "type": "SCALAR"
    },
    {
      "bufferView": 2,
      "byteOffset": 394464,
      "componentType": 5126,
      "count": 2054,
      "max": [
        0.4376765191555023,
        1.5417885780334473,
        0.46740224957466125
      ],
      "min": [
        -0.3351440727710724,
        -0.00794969592243433,
        -0.2342144250869751
      ],
      "type": "VEC3"
    },
    {
      "bufferView": 2,
      "byteOffset": 419112,
      "componentType": 5126,
      "count": 2054,
      "max": [
        0.9999955296516418,
        1.0,
        1.0
      ],
      "min": [
        -0.9999956488609314,
        -1.0,
        -1.0
      ],
      "type": "VEC3"
    },
    {
      "bufferView": 1,
      "byteOffset": 131488,
      "componentType": 5126,
      "count": 2054,
      "max": [
        0.9650588631629944,
        0.49000000953674316
      ],
      "min": [
        0.0,
        0.0
      ],
      "type": "VEC2"
    },
    {
      "bufferView": 0,
      "byteOffset": 67692,
      "componentType": 5125,
      "count": 2100,
      "type": "SCALAR"
    },
    {
      "bufferView": 2,
      "byteOffset": 443760,
      "componentType": 5126,
      "count": 1704,
      "max": [
        0.7987163066864014,
        0.5008401274681091,
        0.6608337759971619
      ],
      "min": [
        -0.8209584951400757,
        0.0,
        -0.4010648727416992
      ],
      "type": "VEC3"
    },
    {
      "bufferView": 2,
      "byteOffset": 464208,
      "componentType": 5126,
      "count": 1704,
      "max": [
        0.9749280214309692,
        0.9973365664482117,
        0.987594723701477
      ],
      "min": [
        -0.9749280214309692,
        -1.0,
        -1.0
      ],
      "type": "VEC3"
    },
    {
      "bufferView": 1,
      "byteOffset": 147920,
      "componentType": 5126,
      "count": 1704,
      "max": [
        0.9666091203689575,
        0.10314977169036865
      ],
      "min": [
        0.9580212235450745,
        0.04030510038137436
      ],
      "type": "VEC2"
    },
    {
      "bufferView": 0,
      "byteOffset": 76092,
      "componentType": 5125,
      "count": 1713,
      "type": "SCALAR"
    },
    {
      "bufferView": 2,
      "byteOffset": 484656,
      "componentType": 5126,
      "count": 3643,
      "max": [
        0.6842410564422607,
        0.5791595578193665,
        0.6974213123321533
      ],
      "min": [
        -0.8589552640914917,
        0.0,
        -0.535314679145813
      ],
      "type": "VEC3"
    },
    {
      "bufferView": 2,
      "byteOffset": 528372,
      "componentType": 5126,
      "count": 3643,
      "max": [
        1.0,
        1.0,
        1.0
      ],
      "min": [
        -1.0,
        -1.0,
        -1.0
      ],
      "type": "VEC3"
    },
    {
      "bufferView": 1,
      "byteOffset": 161552,
      "componentType": 5126,
      "count": 3643,
      "max": [
        1.0,
        1.0
      ],
      "min": [
        0.0,
        0.0
      ],
      "type": "VEC2"
    },
    {
      "bufferView": 0,
      "byteOffset": 82944,
      "componentType": 5125,
      "count": 3822,
      "type": "SCALAR"
    },
    {
      "bufferView": 2,
      "byteOffset": 572088,
      "componentType": 5126,
      "count": 1255,
      "max": [
        0.30115434527397156,
        2.2495269775390625,
        0.48877617716789246
      ],
      "min": [
        -0.5637401938438416,
        5.224808046477847e-05,
        -0.5251284837722778
      ],
      "type": "VEC3"
    },
    {
      "bufferView": 2,
      "byteOffset": 587148,
      "componentType": 5126,
      "count": 1255,
      "max": [
        1.0,
        1.0,
        1.0
      ],
      "min": [
        -1.0,
        -1.0,
        -1.0
      ],
      "type": "VEC3"
    },
    {
      "bufferView": 1,
      "byteOffset": 190696,
      "componentType": 5126,
      "count": 1255,
      "max": [
        1.0,
        1.0
      ],
      "min": [
        0.0,
        0.0
      ],
      "type": "VEC2"
    },
    {
      "bufferView": 0,
      "byteOffset": 98232,
      "componentType": 5125,
      "count": 1344,
      "type": "SCALAR"
    },
    {
      "bufferView": 2,
      "byteOffset": 602208,
      "componentType": 5126,
      "count": 2328,
      "max": [
        0.30662664771080017,
        1.5420769453048706,
        0.17394782602787018
      ],
      "min": [
        -0.3372477889060974,
        -0.005887980572879314,
        -0.2415136843919754
      ],
      "type": "VEC3"
    },
    {
      "bufferView": 2,
      "byteOffset": 630144,
      "componentType": 5126,
      "count": 2328,
      "max": [
        1.0,
        1.0,
        1.0
      ],
      "min": [
        -1.0,
        -1.0,
        -1.0
      ],
      "type": "VEC3"
    },
    {
      "bufferView": 1,
      "byteOffset": 200736,
      "componentType": 5126,
      "count": 2328,
      "max": [
        1.0,
        1.0
      ],
      "min": [
        0.0,
        0.0
      ],
      "type": "VEC2"
    },
    {
      "bufferView": 0,
      "byteOffset": 103608,
      "componentType": 5125,
      "count": 2361,
      "type": "SCALAR"
    },
    {
      "bufferView": 2,
      "byteOffset": 658080,
      "componentType": 5126,
      "count": 1172,
      "max": [
        0.18338926136493683,
        0.5367531776428223,
        0.2393816113471985
      ],
      "min": [
        -0.29617658257484436,
        0.003571450710296631,
        -0.2656935453414917
      ],
      "type": "VEC3"
    },
    {
      "bufferView": 2,
      "byteOffset": 672144,
      "componentType": 5126,
      "count": 1172,
      "max": [
        0.9996551871299744,
        1.0,
        1.0
      ],
      "min": [
        -0.9996551871299744,
        -1.0,
        -1.0
      ],
      "type": "VEC3"
    },
    {
      "bufferView": 1,
      "byteOffset": 219360,
      "componentType": 5126,
      "count": 1172,
      "max": [
        1.0,
        1.0
      ],
      "min": [
        0.0,
        0.0
      ],
      "type": "VEC2"
    },
    {
      "bufferView": 0,
      "byteOffset": 113052,
      "componentType": 5125,
      "count": 1182,
      "type": "SCALAR"
    },
    {
      "bufferView": 2,
      "byteOffset": 686208,
      "componentType": 5126,
      "count": 2211,
      "max": [
        0.44046831130981445,
        2.8803248405456543,
        0.27525708079338074
      ],
      "min": [
        -0.4411102533340454,
        -0.02598956972360611,
        -0.5018966794013977
      ],
      "type": "VEC3"
    },
    {
      "bufferView": 2,
      "byteOffset": 712740,
      "componentType": 5126,
      "count": 2211,
      "max": [
        1.0,
        1.0,
        1.0
      ],
      "min": [
        -1.0,
        -1.0,
        -1.0
      ],
      "type": "VEC3"
    },
    {
      "bufferView": 1,
      "byteOffset": 228736,
      "componentType": 5126,
      "count": 2211,
      "max": [
        0.966796875,
        0.49000000953674316
      ],
      "min": [
        0.0,
        0.0
      ],
      "type": "VEC2"
    },
    {
      "bufferView": 0,
      "byteOffset": 117780,
      "componentType": 5125,
      "count": 2352,
      "type": "SCALAR"
    },
    {
      "bufferView": 2,
      "byteOffset": 739272,
      "componentType": 5126,
      "count": 1454,
      "max": [
        0.4711306393146515,
        2.3493411540985107,
        0.6818398833274841
      ],
      "min": [
        -0.768606424331665,
        5.224808046477847e-05,
        -0.6769705414772034
      ],
      "type": "VEC3"
    },
    {
      "bufferView": 2,
      "byteOffset": 756720,
      "componentType": 5126,
      "count": 1454,
      "max": [
        1.0,
        1.0,
        1.0
      ],
      "min": [
        -1.0,
        -1.0,
        -1.0
      ],
      "type": "VEC3"
    },
    {
      "bufferView": 1,
      "byteOffset": 246424,
      "componentType": 5126,
      "count": 1454,
      "max": [
        1.0,
        0.8333333134651184
      ],
      "min": [
        0.0,
        0.0
      ],
      "type": "VEC2"
    },
    {
      "bufferView": 0,
      "byteOffset": 127188,
      "componentType": 5125,
      "count": 1506,
      "type": "SCALAR"
    },
    {
      "bufferView": 2,
      "byteOffset": 774168,
      "componentType": 5126,
      "count": 900,
      "max": [
        0.05065741017460823,
        2.2981772422790527,
        0.32444649934768677
      ],
      "min": [
        -0.2503910958766937,
        -0.02387886494398117,
        -0.31911033391952515
      ],
      "type": "VEC3"
    },
    {
      "bufferView": 2,
      "byteOffset": 784968,
      "componentType": 5126,
      "count": 900,
      "max": [
        0.9997988939285278,
        0.9995914697647095,
        1.0
      ],
      "min": [
        -0.9997988939285278,
        -0.9995914101600647,
        -1.0
      ],
      "type": "VEC3"
    },
    {
      "bufferView": 1,
      "byteOffset": 258056,
      "componentType": 5126,
      "count": 900,
      "max": [
        0.9667968153953552,
        0.26171875
      ],
      "min": [
        0.736328125,
        0.06640627980232239
      ],
      "type": "VEC2"
    },
    {
      "bufferView": 0,
      "byteOffset": 133212,
      "componentType": 5125,
      "count": 918,
      "type": "SCALAR"
    },
    {
      "bufferView": 2,
      "byteOffset": 795768,
      "componentType": 5126,
      "count": 2108,
      "max": [
        1.9594652652740479,
        3.7950260639190674,
        2.362375259399414
      ],
      "min": [
        -1.4712138175964355,
        0.0,
        -2.39066743850708
      ],
      "type": "VEC3"
    },
    {
      "bufferView": 2,
      "byteOffset": 821064,
      "componentType": 5126,
      "count": 2108,
      "max": [
        1.0,
        1.0,
        1.0
      ],
      "min": [
        -1.0,
        -1.0,
        -1.0
      ],
      "type": "VEC3"
    },
    {
      "bufferView": 1,
      "byteOffset": 265256,
      "componentType": 5126,
      "count": 2108,
      "max": [
        0.9687499403953552,
        0.857421875
      ],
      "min": [
        0.73046875,
        0.03906252980232239
      ],
      "type": "VEC2"
    },
    {
      "bufferView": 0,
      "byteOffset": 136884,
      "componentType": 5125,
      "count": 2304,
      "type": "SCALAR"
    },
    {
      "bufferView": 2,
      "byteOffset": 846360,
      "componentType": 5126,
      "count": 2063,
      "max": [
        0.23327255249023438,
        1.3280649185180664,
        0.26789528131484985
      ],
      "min": [
        -0.22956275939941406,
        -0.0011963681317865849,
        -0.1331712305545807
      ],
      "type": "VEC3"
    },
    {
      "bufferView": 2,
      "byteOffset": 871116,
      "componentType": 5126,
      "count": 2063,
      "max": [
        1.0,
        1.0,
        1.0
      ],
      "min": [
        -1.0,
        -1.0,
        -1.0
      ],
      "type": "VEC3"
    },
    {
      "bufferView": 1,
      "byteOffset": 282120,
      "componentType": 5126,
      "count": 2063,
      "max": [
        0.962890625,
        0.7408077716827393
      ],
      "min": [
        0.0,
        0.0
      ],
      "type": "VEC2"
    },
    {
      "bufferView": 0,
      "byteOffset": 146100,
      "componentType": 5125,
      "count": 2208,
      "type": "SCALAR"
    }
  ],
  "asset": {
    "extras": {
      "author": "Low Poly Models (https://sketchfab.com/LowPolyModelsWorld)",
      "license": "CC-BY-4.0 (http://creativecommons.org/licenses/by/4.0/)",
      "source": "https://sketchfab.com/3d-models/photography-studio-equipment-0a727c4d48d44c569bad774020897b3f",
      "title": "Photography Studio Equipment"
    },
    "generator": "Sketchfab-15.44.0",
    "version": "2.0"
  },
  "bufferViews": [
    {
      "buffer": 0,
      "byteLength": 154932,
      "name": "floatBufferViews",
      "target": 34963
    },
    {
      "buffer": 0,
      "byteLength": 298624,
      "byteOffset": 154932,
      "byteStride": 8,
      "name": "floatBufferViews",
      "target": 34962
    },
    {
      "buffer": 0,
      "byteLength": 895872,
      "byteOffset": 453556,
      "byteStride": 12,
      "name": "floatBufferViews",
      "target": 34962
    }
  ],
  "buffers": [
    {
      "byteLength": 1349428,
      "uri": "scene.bin"
    }
  ],
  "images": [
    {
      "uri": "textures/LowPolyModelsWorld_baseColor.png"
    }
  ],
  "materials": [
    {
      "doubleSided": true,
      "name": "LowPolyModelsWorld",
      "pbrMetallicRoughness": {
        "baseColorTexture": {
          "index": 0
        },
        "metallicFactor": 0.0,
        "roughnessFactor": 0.5
      }
    }
  ],
  "meshes": [
    {
      "name": "Object_0",
      "primitives": [
        {
          "attributes": {
            "NORMAL": 1,
            "POSITION": 0,
            "TEXCOORD_0": 2
          },
          "indices": 3,
          "material": 0,
          "mode": 4
        }
      ]
    },
    {
      "name": "Object_1",
      "primitives": [
        {
          "attributes": {
            "NORMAL": 5,
            "POSITION": 4,
            "TEXCOORD_0": 6
          },
          "indices": 7,
          "material": 0,
          "mode": 4
        }
      ]
    },
    {
      "name": "Object_2",
      "primitives": [
        {
          "attributes": {
            "NORMAL": 9,
            "POSITION": 8,
            "TEXCOORD_0": 10
          },
          "indices": 11,
          "material": 0,
          "mode": 4
        }
      ]
    },
    {
      "name": "Object_3",
      "primitives": [
        {
          "attributes": {
            "NORMAL": 13,
            "POSITION": 12,
            "TEXCOORD_0": 14
          },
          "indices": 15,
          "material": 0,
          "mode": 4
        }
      ]
    },
    {
      "name": "Object_4",
      "primitives": [
        {
          "attributes": {
            "NORMAL": 17,
            "POSITION": 16,
            "TEXCOORD_0": 18
          },
          "indices": 19,
          "material": 0,
          "mode": 4
        }
      ]
    },
    {
      "name": "Object_5",
      "primitives": [
        {
          "attributes": {
            "NORMAL": 21,
            "POSITION": 20,
            "TEXCOORD_0": 22
          },
          "indices": 23,
          "material": 0,
          "mode": 4
        }
      ]
    },
    {
      "name": "Object_6",
      "primitives": [
        {
          "attributes": {
            "NORMAL": 25,
            "POSITION": 24,
            "TEXCOORD_0": 26
          },
          "indices": 27,
          "material": 0,
          "mode": 4
        }
      ]
    },
    {
      "name": "Object_7",
      "primitives": [
        {
          "attributes": {
            "NORMAL": 29,
            "POSITION": 28,
            "TEXCOORD_0": 30
          },
          "indices": 31,
          "material": 0,
          "mode": 4
        }
      ]
    },
    {
      "name": "Object_8",
      "primitives": [
        {
          "attributes": {
            "NORMAL": 33,
            "POSITION": 32,
            "TEXCOORD_0": 34
          },
          "indices": 35,
          "material": 0,
          "mode": 4
        }
      ]
    },
    {
      "name": "Object_9",
      "primitives": [
        {
          "attributes": {
            "NORMAL": 37,
            "POSITION": 36,
            "TEXCOORD_0": 38
          },
          "indices": 39,
          "material": 0,
          "mode": 4
        }
      ]
    },
    {
      "name": "Object_10",
      "primitives": [
        {
          "attributes": {
            "NORMAL": 41,
            "POSITION": 40,
            "TEXCOORD_0": 42
          },
          "indices": 43,
          "material": 0,
          "mode": 4
        }
      ]
    },
    {
      "name": "Object_11",
      "primitives": [
        {
          "attributes": {
            "NORMAL": 45,
            "POSITION": 44,
            "TEXCOORD_0": 46
          },
          "indices": 47,
          "material": 0,
          "mode": 4
        }
      ]
    },
    {
      "name": "Object_12",
      "primitives": [
        {
          "attributes": {
            "NORMAL": 49,
            "POSITION": 48,
            "TEXCOORD_0": 50
          },
          "indices": 51,
          "material": 0,
          "mode": 4
        }
      ]
    },
    {
      "name": "Object_13",
      "primitives": [
        {
          "attributes": {
            "NORMAL": 53,
            "POSITION": 52,
            "TEXCOORD_0": 54
          },
          "indices": 55,
          "material": 0,
          "mode": 4
        }
      ]
    },
    {
      "name": "Object_14",
      "primitives": [
        {
          "attributes": {
            "NORMAL": 57,
            "POSITION": 56,
            "TEXCOORD_0": 58
          },
          "indices": 59,
          "material": 0,
          "mode": 4
        }
      ]
    },
    {
      "name": "Object_15",
      "primitives": [
        {
          "attributes": {
            "NORMAL": 61,
            "POSITION": 60,
            "TEXCOORD_0": 62
          },
          "indices": 63,
          "material": 0,
          "mode": 4
        }
      ]
    },
    {
      "name": "Object_16",
      "primitives": [
        {
          "attributes": {
            "NORMAL": 65,
            "POSITION": 64,
            "TEXCOORD_0": 66
          },
          "indices": 67,
          "material": 0,
          "mode": 4
        }
      ]
    },
    {
      "name": "Object_17",
      "primitives": [
        {
          "attributes": {
            "NORMAL": 69,
            "POSITION": 68,
            "TEXCOORD_0": 70
          },
          "indices": 71,
          "material": 0,
          "mode": 4
        }
      ]
    },
    {
      "name": "Object_18",
      "primitives": [
        {
          "attributes": {
            "NORMAL": 73,
            "POSITION": 72,
            "TEXCOORD_0": 74
          },
          "indices": 75,
          "material": 0,
          "mode": 4
        }
      ]
    },
    {
      "name": "Object_19",
      "primitives": [
        {
          "attributes": {
            "NORMAL": 77,
            "POSITION": 76,
            "TEXCOORD_0": 78
          },
          "indices": 79,
          "material": 0,
          "mode": 4
        }
      ]
    }
  ],
  "nodes": [
    {
      "children": [
        1
      ],
      "matrix": [
        1.0,
        0.0,
        0.0,
        0.0,
        0.0,
        2.220446049250313e-16,
        -1.0,
        0.0,
        0.0,
        1.0,
        2.220446049250313e-16,
        0.0,
        0.0,
        0.0,
        0.0,
        1.0
      ],
      "name": "Sketchfab_model"
    },
    {
      "children": [
        2
      ],
      "name": "root"
    },
    {
      "children": [
        3,
        5,
        7,
        9,
        11,
        13,
        15,
        17,
        19,
        21,
        23,
        25,
        27,
        29,
        31,
        33,
        35,
        37,
        39,
        41
      ],
      "matrix": [
        1.0,
        0.0,
        0.0,
        0.0,
        0.0,
        2.220446049250313e-16,
        1.0,
        0.0,
        0.0,
        -1.0,
        2.220446049250313e-16,
        0.0,
        0.0,
        0.0,
        0.0,
        1.0
      ],
      "name": "GLTF_SceneRootNode"
    },
    {
      "children": [
        4
      ],
      "matrix": [
        1.0,
        0.0,
        0.0,
        0.0,
        0.0,
        1.0,
        0.0,
        0.0,
        0.0,
        0.0,
        1.0,
        0.0,
        -5.87459135055542,
        0.0,
        -0.39427274465560913,
        1.0
      ],
      "name": "Camera.02_0"
    },
    {
      "mesh": 0,
      "name": "Object_4"
    },
    {
      "children": [
        6
      ],
      "matrix": [
        1.0,
        0.0,
        0.0,
        0.0,
        0.0,
        1.0,
        0.0,
        0.0,
        0.0,
        0.0,
        1.0,
        0.0,
        -5.93060302734375,
        0.0,
        2.242251396179199,
        1.0
      ],
      "name": "Um.Flash.02_1"
    },
    {
      "mesh": 1,
      "name": "Object_6"
    },
    {
      "children": [
        8
      ],
      "matrix": [
        1.0,
        0.0,
        0.0,
        0.0,
        0.0,
        1.0,
        0.0,
        0.0,
        0.0,
        0.0,
        1.0,
        0.0,
        -5.93060302734375,
        0.0,
        3.708867073059082,
        1.0
      ],
      "name": "SoftBox.02_2"
    },
    {
      "mesh": 2,
      "name": "Object_8"
    },
    {
      "children": [
        10
      ],
      "matrix": [
        1.0,
        0.0,
        0.0,
        0.0,
        0.0,
        1.0,
        0.0,
        0.0,
        0.0,
        0.0,
        1.0,
        0.0,
        -2.4521334171295166,
        0.0,
        1.1140928268432617,
        1.0
      ],
      "name": "SoftBox.03_3"
    },
    {
      "mesh": 3,
      "name": "Object_10"
    },
    {
      "children": [
        12
      ],
      "matrix": [
        1.0,
        0.0,
        0.0,
        0.0,
        0.0,
        1.0,
        0.0,
        0.0,
        0.0,
        0.0,
        1.0,
        0.0,
        -4.466547012329102,
        0.0,
        1.205561637878418,
        1.0
      ],
      "name": "Flash.02_4"
    },
    {
      "mesh": 4,
      "name": "Object_12"
    },
    {
      "children": [
        14
      ],
      "matrix": [
        1.0,
        0.0,
        0.0,
        0.0,
        0.0,
        1.0,
        0.0,
        0.0,
        0.0,
        0.0,
        1.0,
        0.0,
        -2.4521334171295166,
        0.0,
        2.175229072570801,
        1.0
      ],
      "name": "Flash.03_5"
    },
    {
      "mesh": 5,
      "name": "Object_14"
    },
    {
      "children": [
        16
      ],
      "matrix": [
        1.0,
        0.0,
        0.0,
        0.0,
        0.0,
        1.0,
        0.0,
        0.0,
        0.0,
        0.0,
        1.0,
        0.0,
        -4.420868873596191,
        0.0,
        2.3260698318481445,
        1.0
      ],
      "name": "Mic.02_6"
    },
    {
      "mesh": 6,
      "name": "Object_16"
    },
    {
      "children": [
        18
      ],
      "matrix": [
        1.0,
        0.0,
        0.0,
        0.0,
        0.0,
        1.0,
        0.0,
        0.0,
        0.0,
        0.0,
        1.0,
        0.0,
        -4.407470226287842,
        0.0,
        -0.4625024199485779,
        1.0
      ],
      "name": "Microphone.02_7"
    },
    {
      "mesh": 7,
      "name": "Object_18"
    },
    {
      "children": [
        20
      ],
      "matrix": [
        1.0,
        0.0,
        0.0,
        0.0,
        0.0,
        1.0,
        0.0,
        0.0,
        0.0,
        0.0,
        1.0,
        0.0,
        -4.420868873596191,
        0.0,
        3.613896369934082,
        1.0
      ],
      "name": "Mic.01_8"
    },
    {
      "mesh": 8,
      "name": "Object_20"
    },
    {
      "children": [
        22
      ],
      "matrix": [
        1.0,
        0.0,
        0.0,
        0.0,
        0.0,
        1.0,
        0.0,
        0.0,
        0.0,
        0.0,
        1.0,
        0.0,
        -2.4605016708374023,
        0.0,
        -0.4189748167991638,
        1.0
      ],
      "name": "Microphone.01_9"
    },
    {
      "mesh": 9,
      "name": "Object_22"
    },
    {
      "children": [
        24
      ],
      "matrix": [
        1.0,
        0.0,
        0.0,
        0.0,
        0.0,
        1.0,
        0.0,
        0.0,
        0.0,
        0.0,
        1.0,
        0.0,
        -2.2381651401519775,
        0.0,
        -3.7779035568237305,
        1.0
      ],
      "name": "GroundStuff01_10"
    },
    {
      "mesh": 10,
      "name": "Object_24"
    },
    {
      "children": [
        26
      ],
      "matrix": [
        1.0,
        0.0,
        0.0,
        0.0,
        0.0,
        1.0,
        0.0,
        0.0,
        0.0,
        0.0,
        1.0,
        0.0,
        -2.2381651401519775,
        0.0,
        -1.9745149612426758,
        1.0
      ],
      "name": "GroundStuff02_11"
    },
    {
      "mesh": 11,
      "name": "Object_26"
    },
    {
      "children": [
        28
      ],
      "matrix": [
        1.0,
        0.0,
        0.0,
        0.0,
        0.0,
        1.0,
        0.0,
        0.0,
        0.0,
        0.0,
        1.0,
        0.0,
        -2.4521334171295166,
        0.0,
        3.64681339263916,
        1.0
      ],
      "name": "Flash.04_12"
    },
    {
      "mesh": 12,
      "name": "Object_28"
    },
    {
      "children": [
        30
      ],
      "matrix": [
        1.0,
        0.0,
        0.0,
        0.0,
        0.0,
        1.0,
        0.0,
        0.0,
        0.0,
        0.0,
        1.0,
        0.0,
        -4.386022567749023,
        0.0,
        -2.034409523010254,
        1.0
      ],
      "name": "Flash.01_13"
    },
    {
      "mesh": 13,
      "name": "Object_30"
    },
    {
      "children": [
        32
      ],
      "matrix": [
        1.0,
        0.0,
        0.0,
        0.0,
        0.0,
        1.0,
        0.0,
        0.0,
        0.0,
        0.0,
        1.0,
        0.0,
        -5.825142860412598,
        0.0,
        -2.1360769271850586,
        1.0
      ],
      "name": "Red Light_14"
    },
    {
      "mesh": 14,
      "name": "Object_32"
    },
    {
      "children": [
        34
      ],
      "matrix": [
        1.0,
        0.0,
        0.0,
        0.0,
        0.0,
        1.0,
        0.0,
        0.0,
        0.0,
        0.0,
        1.0,
        0.0,
        -4.306669235229492,
        0.0,
        -3.8471555709838867,
        1.0
      ],
      "name": "SoftBox.01_15"
    },
    {
      "mesh": 15,
      "name": "Object_34"
    },
    {
      "children": [
        36
      ],
      "matrix": [
        1.0,
        0.0,
        0.0,
        0.0,
        0.0,
        1.0,
        0.0,
        0.0,
        0.0,
        0.0,
        1.0,
        0.0,
        0.5714578628540039,
        0.0,
        1.3884286880493164,
        1.0
      ],
      "name": "Um.Flash.01_16"
    },
    {
      "mesh": 16,
      "name": "Object_36"
    },
    {
      "children": [
        38
      ],
      "matrix": [
        1.0,
        0.0,
        0.0,
        0.0,
        0.0,
        1.0,
        0.0,
        0.0,
        0.0,
        0.0,
        1.0,
        0.0,
        -5.768256187438965,
        0.0,
        -3.756983757019043,
        1.0
      ],
      "name": "Ladder_17"
    },
    {
      "mesh": 17,
      "name": "Object_38"
    },
    {
      "children": [
        40
      ],
      "matrix": [
        1.0,
        0.0,
        0.0,
        0.0,
        0.0,
        1.0,
        0.0,
        0.0,
        0.0,
        0.0,
        1.0,
        0.0,
        0.0,
        0.0,
        0.007905066013336182,
        1.0
      ],
      "name": "WhiteCurtain.Sofa_18"
    },
    {
      "mesh": 18,
      "name": "Object_40"
    },
    {
      "children": [
        42
      ],
      "matrix": [
        1.0,
        0.0,
        0.0,
        0.0,
        0.0,
        1.0,
        0.0,
        0.0,
        0.0,
        0.0,
        1.0,
        0.0,
        -5.93060302734375,
        0.0,
        1.1846818923950195,
        1.0
      ],
      "name": "Camera.01_19"
    },
    {
      "mesh": 19,
      "name": "Object_42"
    }
  ],
  "samplers": [
    {
      "magFilter": 9729,
      "minFilter": 9987,
      "wrapS": 10497,
      "wrapT": 10497
    }
  ],
  "scene": 0,
  "scenes": [
    {
      "name": "Sketchfab_Scene",
      "nodes": [
        0
      ]
    }
  ],
  "textures": [
    {
      "sampler": 0,
      "source": 0
    }
  ]
}
